<?xml version="1.0" encoding="utf-8"?>
<!-- Generator: Adobe Illustrator 27.4.1, SVG Export Plug-In . SVG Version: 6.00 Build 0)  -->
<svg version="1.1" xmlns="http://www.w3.org/2000/svg" xmlns:xlink="http://www.w3.org/1999/xlink" x="0px" y="0px"
	 viewBox="0 0 203.38 203.38" style="enable-background:new 0 0 203.38 203.38;" xml:space="preserve">
<style type="text/css">
	.st0{fill:#F7F6F5;}
	.st1{clip-path:url(#SVGID_00000111882470786021586430000003345311214606593969_);}
	.st2{fill:#FFFFFF;}
	.st3{fill-rule:evenodd;clip-rule:evenodd;fill:url(#bubble_00000164515842038742230270000002121153072553023393_);}
	.st4{fill-rule:evenodd;clip-rule:evenodd;fill:#FFFFFF;}
	.st5{fill:url(#SVGID_00000075124860867276556370000015927322569573964987_);}
	.st6{fill-rule:evenodd;clip-rule:evenodd;fill:#5A99EC;}
	.st7{fill-rule:evenodd;clip-rule:evenodd;fill:#121F37;}
	.st8{fill:#C40027;}
	.st9{fill:#DA0000;}
	.st10{fill:url(#SVGID_00000057132205784595511240000010825240750405994159_);}
	.st11{fill:#4467AD;}
	.st12{fill:#FEFEFE;}
	.st13{fill-rule:evenodd;clip-rule:evenodd;fill:#0063DC;}
	.st14{fill-rule:evenodd;clip-rule:evenodd;fill:#FF0084;}
	.st15{fill-rule:evenodd;clip-rule:evenodd;fill:#FEFB00;}
	.st16{fill-rule:evenodd;clip-rule:evenodd;fill:url(#SVGID_00000089564965172886891660000001260040012447162547_);}
	.st17{fill:url(#SVGID_00000108993129040909442560000015219245214621198486_);}
	.st18{fill:#C8DAEA;}
	.st19{fill:#A9C6D8;}
	.st20{fill:#DC4711;}
	.st21{fill-rule:evenodd;clip-rule:evenodd;fill:#9146FF;}
	.st22{fill:#EA4C89;}
	.st23{fill-rule:evenodd;clip-rule:evenodd;fill:#C32361;}
	.st24{fill-rule:evenodd;clip-rule:evenodd;}
	.st25{fill:#1AB7EA;}
	.st26{fill-rule:evenodd;clip-rule:evenodd;fill:url(#SVGID_00000072259566527206038800000002217367800224135095_);}
	.st27{opacity:0.9;fill:#FFFFFF;}
	.st28{fill-rule:evenodd;clip-rule:evenodd;fill:#FEE712;}
	.st29{fill:#FEE712;}
	.st30{fill:url(#SVGID_00000034079049684244594170000014255152508085934720_);}
	.st31{fill:url(#SVGID_00000029009015568476121630000007602199343841650829_);}
	.st32{opacity:0.05;fill-rule:evenodd;clip-rule:evenodd;enable-background:new    ;}
	.st33{opacity:0.1;fill-rule:evenodd;clip-rule:evenodd;enable-background:new    ;}
	.st34{fill:url(#SVGID_00000045610814627236373100000011309686425598826911_);}
	.st35{fill:#010201;}
	.st36{fill:#CB1C54;}
	.st37{fill:#6ABAC5;}
	.st38{fill-rule:evenodd;clip-rule:evenodd;fill:#68B82B;}
	.st39{fill:#68B82B;}
	.st40{fill:#4676ED;}
	.st41{fill:#7BD568;}
</style>
<g id="Background">
</g>
<g id="Graphic_Elements">
	<g>
		<g>
			<path class="st2" d="M85.49,137.19c32.97,0,51-27.31,51-51c0-0.78-0.02-1.55-0.05-2.32c3.5-2.53,6.54-5.69,8.94-9.28
				c-3.21,1.43-6.67,2.39-10.29,2.82c3.7-2.22,6.54-5.73,7.88-9.91c-3.46,2.05-7.3,3.55-11.38,4.35c-3.27-3.48-7.93-5.66-13.08-5.66
				c-9.9,0-17.93,8.03-17.93,17.92c0,1.41,0.16,2.77,0.46,4.09c-14.9-0.75-28.11-7.88-36.94-18.73c-1.54,2.65-2.43,5.73-2.43,9.01
				c0,6.22,3.16,11.71,7.98,14.92c-2.94-0.09-5.7-0.9-8.12-2.24c0,0.07,0,0.15,0,0.23c0,8.68,6.18,15.93,14.38,17.57
				c-1.51,0.41-3.09,0.63-4.72,0.63c-1.15,0-2.28-0.11-3.37-0.32c2.28,7.12,8.9,12.3,16.74,12.45c-6.14,4.81-13.86,7.67-22.26,7.67
				c-1.45,0-2.87-0.08-4.28-0.25C65.94,134.22,75.36,137.19,85.49,137.19"/>
		</g>
	</g>
</g>
</svg>
