<?xml version="1.0" encoding="utf-8"?>
<!-- Generator: Adobe Illustrator 27.4.1, SVG Export Plug-In . SVG Version: 6.00 Build 0)  -->
<svg version="1.1" xmlns="http://www.w3.org/2000/svg" xmlns:xlink="http://www.w3.org/1999/xlink" x="0px" y="0px"
	 viewBox="0 0 203.38 203.38" style="enable-background:new 0 0 203.38 203.38;" xml:space="preserve">
<style type="text/css">
	.st0{fill:#F7F6F5;}
	.st1{clip-path:url(#SVGID_00000026149019809045442970000003811128192803054219_);}
	.st2{fill:#FFFFFF;}
	.st3{fill-rule:evenodd;clip-rule:evenodd;fill:url(#bubble_00000137852755531699666510000015003049823859860097_);}
	.st4{fill-rule:evenodd;clip-rule:evenodd;fill:#FFFFFF;}
	.st5{fill:url(#SVGID_00000166643386893066511020000005252634567383969931_);}
	.st6{fill-rule:evenodd;clip-rule:evenodd;fill:#5A99EC;}
	.st7{fill-rule:evenodd;clip-rule:evenodd;fill:#121F37;}
	.st8{fill:#C40027;}
	.st9{fill:#DA0000;}
	.st10{fill:url(#SVGID_00000024706439497943407100000006172031044376671896_);}
	.st11{fill:#4467AD;}
	.st12{fill:#FEFEFE;}
	.st13{fill-rule:evenodd;clip-rule:evenodd;fill:#0063DC;}
	.st14{fill-rule:evenodd;clip-rule:evenodd;fill:#FF0084;}
	.st15{fill-rule:evenodd;clip-rule:evenodd;fill:#FEFB00;}
	.st16{fill-rule:evenodd;clip-rule:evenodd;fill:url(#SVGID_00000174584501660062885920000002082138782976549250_);}
	.st17{fill:url(#SVGID_00000059998102404037611080000011834486404579220409_);}
	.st18{fill:#C8DAEA;}
	.st19{fill:#A9C6D8;}
	.st20{fill:#DC4711;}
	.st21{fill-rule:evenodd;clip-rule:evenodd;fill:#9146FF;}
	.st22{fill:#EA4C89;}
	.st23{fill-rule:evenodd;clip-rule:evenodd;fill:#C32361;}
	.st24{fill-rule:evenodd;clip-rule:evenodd;}
	.st25{fill:#1AB7EA;}
	.st26{fill-rule:evenodd;clip-rule:evenodd;fill:url(#SVGID_00000165225347606565025480000004398506596916038809_);}
	.st27{opacity:0.9;fill:#FFFFFF;}
	.st28{fill-rule:evenodd;clip-rule:evenodd;fill:#FEE712;}
	.st29{fill:#FEE712;}
	.st30{fill:url(#SVGID_00000099657771375172542280000015736590586418845066_);}
	.st31{fill:url(#SVGID_00000039828139778790181310000013790032901758536584_);}
	.st32{opacity:0.05;fill-rule:evenodd;clip-rule:evenodd;enable-background:new    ;}
	.st33{opacity:0.1;fill-rule:evenodd;clip-rule:evenodd;enable-background:new    ;}
	.st34{fill:url(#SVGID_00000043443243160620169880000004004898311134341039_);}
	.st35{fill:#010201;}
	.st36{fill:#CB1C54;}
	.st37{fill:#6ABAC5;}
	.st38{fill-rule:evenodd;clip-rule:evenodd;fill:#68B82B;}
	.st39{fill:#68B82B;}
	.st40{fill:#4676ED;}
	.st41{fill:#7BD568;}
</style>
<g id="Background">
</g>
<g id="Graphic_Elements">
	<g>
		<g>
			<path class="st12" d="M105.87,95.49c1.11-1.25,2.02-2.51,3.16-3.58c3.5-3.3,7.64-4.96,12.48-4.92c2.66,0.02,5.28,0.21,7.84,0.95
				c5.86,1.69,9.26,5.73,10.89,11.45c1.22,4.29,1.44,8.7,1.45,13.12c0.02,9.32-0.03,18.65-0.01,27.97c0,0.87-0.24,1.1-1.1,1.1
				c-4.8-0.04-9.61-0.04-14.41,0c-0.85,0.01-1.03-0.25-1.03-1.05c0.03-8.87,0.03-17.74,0-26.62c-0.01-2.22-0.15-4.45-0.77-6.61
				c-1.15-3.98-4-6.01-8.17-5.79c-5.7,0.3-8.66,3.12-9.38,8.91c-0.17,1.38-0.26,2.77-0.25,4.16c0.01,8.63-0.01,17.26,0.02,25.89
				c0,0.86-0.21,1.11-1.09,1.11c-4.84-0.04-9.68-0.04-14.52,0c-0.78,0.01-1-0.2-1-0.99c0.02-17.08,0.02-34.17,0-51.25
				c0-0.85,0.28-1.04,1.08-1.04c4.59,0.03,9.19,0.04,13.78,0c0.85-0.01,1.06,0.27,1.05,1.07C105.84,91.41,105.87,93.45,105.87,95.49
				z"/>
			<path class="st12" d="M79.55,115.01c0,8.45-0.01,16.9,0.02,25.35c0,0.94-0.23,1.22-1.2,1.21c-4.8-0.05-9.6-0.04-14.41-0.01
				c-0.77,0.01-1-0.19-1-0.98c0.02-17.11,0.02-34.22,0-51.34c0-0.71,0.17-0.96,0.92-0.96c4.87,0.03,9.74,0.04,14.61-0.01
				c0.94-0.01,1.06,0.35,1.06,1.16C79.54,97.97,79.55,106.49,79.55,115.01z"/>
			<path class="st12" d="M80.87,71.34c0.01,5.31-4.3,9.63-9.6,9.63c-5.23,0-9.57-4.32-9.59-9.55c-0.02-5.28,4.32-9.63,9.61-9.63
				C76.55,61.81,80.87,66.11,80.87,71.34z"/>
		</g>
	</g>
</g>
</svg>
