<?xml version="1.0" encoding="utf-8"?>
<!-- Generator: Adobe Illustrator 27.4.1, SVG Export Plug-In . SVG Version: 6.00 Build 0)  -->
<svg version="1.1" xmlns="http://www.w3.org/2000/svg" xmlns:xlink="http://www.w3.org/1999/xlink" x="0px" y="0px"
	 viewBox="0 0 203.38 203.38" style="enable-background:new 0 0 203.38 203.38;" xml:space="preserve">
<style type="text/css">
	.st0{fill:#F7F6F5;}
	.st1{clip-path:url(#SVGID_00000137106522967846865190000011832127854939530162_);}
	.st2{fill:#FFFFFF;}
	.st3{fill-rule:evenodd;clip-rule:evenodd;fill:url(#bubble_00000121958781926895699920000015353692443980127881_);}
	.st4{fill-rule:evenodd;clip-rule:evenodd;fill:#FFFFFF;}
	.st5{fill:url(#SVGID_00000131327994290858295460000004623026765118696855_);}
	.st6{fill-rule:evenodd;clip-rule:evenodd;fill:#5A99EC;}
	.st7{fill-rule:evenodd;clip-rule:evenodd;fill:#121F37;}
	.st8{fill:#C40027;}
	.st9{fill:#DA0000;}
	.st10{fill:url(#SVGID_00000049917588037272128830000002084085789278916510_);}
	.st11{fill:#4467AD;}
	.st12{fill:#FEFEFE;}
	.st13{fill-rule:evenodd;clip-rule:evenodd;fill:#0063DC;}
	.st14{fill-rule:evenodd;clip-rule:evenodd;fill:#FF0084;}
	.st15{fill-rule:evenodd;clip-rule:evenodd;fill:#FEFB00;}
	.st16{fill-rule:evenodd;clip-rule:evenodd;fill:url(#SVGID_00000173159056729056706820000007871318726287103619_);}
	.st17{fill:url(#SVGID_00000146497170787992915000000009920380422014774944_);}
	.st18{fill:#C8DAEA;}
	.st19{fill:#A9C6D8;}
	.st20{fill:#DC4711;}
	.st21{fill-rule:evenodd;clip-rule:evenodd;fill:#9146FF;}
	.st22{fill:#EA4C89;}
	.st23{fill-rule:evenodd;clip-rule:evenodd;fill:#C32361;}
	.st24{fill-rule:evenodd;clip-rule:evenodd;}
	.st25{fill:#1AB7EA;}
	.st26{fill-rule:evenodd;clip-rule:evenodd;fill:url(#SVGID_00000106856437511431621910000017969175214436248961_);}
	.st27{opacity:0.9;fill:#FFFFFF;}
	.st28{fill-rule:evenodd;clip-rule:evenodd;fill:#FEE712;}
	.st29{fill:#FEE712;}
	.st30{fill:url(#SVGID_00000076585058224546218060000012329202010142849667_);}
	.st31{fill:url(#SVGID_00000043436437041144728490000017027441691851083937_);}
	.st32{opacity:0.05;fill-rule:evenodd;clip-rule:evenodd;enable-background:new    ;}
	.st33{opacity:0.1;fill-rule:evenodd;clip-rule:evenodd;enable-background:new    ;}
	.st34{fill:url(#SVGID_00000057114996574422461360000014495778288821302414_);}
	.st35{fill:#010201;}
	.st36{fill:#CB1C54;}
	.st37{fill:#6ABAC5;}
	.st38{fill-rule:evenodd;clip-rule:evenodd;fill:#68B82B;}
	.st39{fill:#68B82B;}
	.st40{fill:#4676ED;}
	.st41{fill:#7BD568;}
</style>
<g id="Background">
</g>
<g id="Graphic_Elements">
	<path class="st2" d="M144.81,80.03c-1.04-3.87-4.08-6.92-7.96-7.96c-7.02-1.88-35.16-1.88-35.16-1.88s-28.14,0-35.16,1.88
		c-3.87,1.04-6.92,4.08-7.96,7.96c-1.88,7.02-1.88,21.66-1.88,21.66s0,14.64,1.88,21.66c1.03,3.87,4.08,6.92,7.96,7.96
		c7.02,1.88,35.16,1.88,35.16,1.88s28.14,0,35.16-1.88c3.87-1.04,6.92-4.08,7.96-7.96c1.88-7.02,1.88-21.66,1.88-21.66
		S146.69,87.05,144.81,80.03z M92.69,115.19v-27l23.38,13.5L92.69,115.19z"/>
</g>
</svg>
