<?xml version="1.0" encoding="utf-8"?>
<!-- Generator: Adobe Illustrator 27.4.1, SVG Export Plug-In . SVG Version: 6.00 Build 0)  -->
<svg version="1.1" xmlns="http://www.w3.org/2000/svg" xmlns:xlink="http://www.w3.org/1999/xlink" x="0px" y="0px"
	 viewBox="0 0 248.34 221.25" style="enable-background:new 0 0 248.34 221.25;" xml:space="preserve">
<style type="text/css">
	.st0{fill:#F7F6F5;}
	.st1{clip-path:url(#SVGID_00000000915197480830594660000009015307574432650394_);}
	.st2{fill:#FFFFFF;}
	.st3{fill:#DA0000;}
	.st4{fill:#010201;}
	.st5{fill:#CB1C54;}
	.st6{fill:#6ABAC5;}
	.st7{clip-path:url(#SVGID_00000167362420076036473150000011528684925067090085_);}
	.st8{fill-rule:evenodd;clip-rule:evenodd;fill:url(#bubble_00000023239885210306566050000000475909434986072750_);}
	.st9{fill-rule:evenodd;clip-rule:evenodd;fill:#FFFFFF;}
	.st10{fill:url(#SVGID_00000089542542672422340120000013300496369493303982_);}
	.st11{fill-rule:evenodd;clip-rule:evenodd;fill:#5A99EC;}
	.st12{fill-rule:evenodd;clip-rule:evenodd;fill:#121F37;}
	.st13{fill:#C40027;}
	.st14{fill:url(#SVGID_00000119083341455168015470000000530071918230919090_);}
	.st15{fill:#4467AD;}
	.st16{fill:#FEFEFE;}
	.st17{fill-rule:evenodd;clip-rule:evenodd;fill:#0063DC;}
	.st18{fill-rule:evenodd;clip-rule:evenodd;fill:#FF0084;}
	.st19{fill-rule:evenodd;clip-rule:evenodd;fill:#FEFB00;}
	.st20{fill-rule:evenodd;clip-rule:evenodd;fill:url(#SVGID_00000033354618607010865060000012570184318729390478_);}
	.st21{fill:url(#SVGID_00000093862853759362723050000010832734249032738196_);}
	.st22{fill:#C8DAEA;}
	.st23{fill:#A9C6D8;}
	.st24{fill:#DC4711;}
	.st25{fill-rule:evenodd;clip-rule:evenodd;fill:#9146FF;}
	.st26{fill:#EA4C89;}
	.st27{fill-rule:evenodd;clip-rule:evenodd;fill:#C32361;}
	.st28{fill-rule:evenodd;clip-rule:evenodd;}
	.st29{fill:#1AB7EA;}
	.st30{fill-rule:evenodd;clip-rule:evenodd;fill:url(#SVGID_00000009558865267063635840000003078733825946065027_);}
	.st31{opacity:0.9;fill:#FFFFFF;}
	.st32{fill-rule:evenodd;clip-rule:evenodd;fill:#FEE712;}
	.st33{fill:#FEE712;}
	.st34{fill:url(#SVGID_00000141428054163663354610000012283168271930753152_);}
	.st35{fill:url(#SVGID_00000106858192445118666180000016005186046228036521_);}
	.st36{opacity:0.05;fill-rule:evenodd;clip-rule:evenodd;enable-background:new    ;}
	.st37{opacity:0.1;fill-rule:evenodd;clip-rule:evenodd;enable-background:new    ;}
	.st38{fill:url(#SVGID_00000147914098367762741060000005487105104064128436_);}
	.st39{fill-rule:evenodd;clip-rule:evenodd;fill:#68B82B;}
	.st40{fill:#68B82B;}
	.st41{fill:#4676ED;}
	.st42{fill:#7BD568;}
</style>
<g id="Background">
</g>
<g id="Graphic_Elements">
	<g>
		<circle class="st4" cx="124.17" cy="110.62" r="67.5"/>
		<g>
			<g>
				<path class="st2" d="M106.15,137.72c0.08,0.07,0.16,0.15,0.24,0.22c0.75,0.53,1.29,1.29,2,1.86c2.22,1.78,4.72,2.75,7.58,2.93
					c6.78,0.42,12.69-4.68,13.46-11.39c0.04-0.33,0.02-0.66,0.02-0.99c0-20.19,0-40.38,0-60.58c0-1.36,0-1.36,1.36-1.36
					c3.07,0,6.14,0,9.21,0c0.29,0,0.59-0.05,0.85,0.13c0.02,0.02,0.03,0.03,0.05,0.04c0.15,0.15,0.19,0.35,0.23,0.54
					c1.18,5.44,4.04,9.78,8.53,13.06c0.28,0.2,0.52,0.46,0.78,0.68c0.2,0.17,0.39,0.33,0.59,0.5c0.72,0.41,1.24,1.07,1.87,1.6
					c2.48,2.07,5.29,3.5,8.42,4.3c0.28,0.07,0.59,0.07,0.79,0.33c0.01,0.02,0.03,0.03,0.05,0.04c0.18,0.19,0.15,0.44,0.15,0.67
					c0,3.56,0.01,7.12,0,10.68c0,0.81-0.11,0.86-0.93,0.86c-2.61,0-5.17-0.35-7.7-0.93c-4.36-1-8.38-2.77-12.11-5.22
					c-0.19-0.13-0.4-0.4-0.61-0.31c-0.26,0.12-0.13,0.46-0.13,0.7c-0.01,10.02,0.04,20.04-0.02,30.07
					c-0.04,7.01-2.27,13.28-6.86,18.61c-4.87,5.67-11.06,8.96-18.49,9.87c-5.73,0.7-11.16-0.34-16.32-2.88
					c-0.83-0.41-1.63-0.89-2.38-1.45c-0.24-0.21-0.47-0.42-0.71-0.63c-1.78-1.47-3.01-3.37-4.17-5.31c-1.78-3-2.93-6.24-3.49-9.68
					c-0.32-1.97-0.49-3.95-0.38-5.94c0.35-6.42,2.51-12.14,6.65-17.09c3.47-4.15,7.81-7.05,12.92-8.8c2.13-0.73,4.33-1.18,6.59-1.34
					c0.42-0.03,0.83-0.13,1.25-0.1c0.2,0.01,0.4-0.01,0.58,0.13c0.02,0.02,0.04,0.03,0.06,0.04c0.12,0.2,0.09,0.43,0.09,0.64
					c0,3.61,0,7.23,0,10.84c0,0.13,0,0.26-0.01,0.38c-0.02,0.36-0.2,0.48-0.54,0.39c-0.99-0.28-2-0.41-3.02-0.46
					c-1.58-0.08-3.14,0.14-4.63,0.69c-4.97,1.83-7.98,5.39-8.61,10.63c-0.62,5.16,1.42,9.29,5.71,12.27
					C105.45,137.2,105.82,137.43,106.15,137.72z"/>
				<path class="st5" d="M96.8,150.31c0.19-0.05,0.3,0.1,0.43,0.18c3.23,1.97,6.71,3.26,10.45,3.86c1.88,0.3,3.77,0.43,5.67,0.33
					c6.35-0.33,12.04-2.44,16.96-6.51c4.73-3.91,7.88-8.85,9.45-14.78c0.5-1.87,0.77-3.78,0.87-5.72c0.06-1.11,0.05-2.23,0.05-3.34
					c0-9.55,0-19.1,0-28.65c0-0.22,0-0.43,0-0.65c0.25-0.07,0.36,0.12,0.5,0.21c3.4,2.33,7.08,4.05,11.06,5.15
					c2.18,0.6,4.4,1,6.66,1.2c0.95,0.08,1.9,0.07,2.84,0.14c0.41,0.03,0.42,0.01,0.43-0.42c0.01-0.46,0-0.91,0-1.37
					c0-3.23,0-6.46,0-9.7c0-0.2,0.01-0.4,0.02-0.6c0.85,0.1,1.69,0.28,2.55,0.34c0.53,0.04,1.06,0.09,1.59,0.07
					c0.26-0.01,0.37,0.08,0.34,0.35c-0.01,0.11,0,0.22,0,0.33c0,4.67,0,9.35,0,14.02c0,0.09,0,0.18,0,0.27
					c-0.01,0.41-0.01,0.42-0.44,0.41c-1.46,0-2.92-0.1-4.37-0.29c-2.96-0.39-5.84-1.11-8.62-2.2c-2.66-1.04-5.17-2.36-7.53-3.98
					c-0.15-0.1-0.3-0.19-0.52-0.34c0,0.27,0,0.46,0,0.66c0,10.21,0.01,20.42,0,30.62c-0.01,5.44-1.41,10.5-4.32,15.11
					c-3.51,5.57-8.37,9.48-14.55,11.73c-3.75,1.36-7.64,1.89-11.63,1.59c-6.73-0.5-12.55-3.07-17.51-7.63
					C97.04,150.59,96.92,150.44,96.8,150.31z"/>
				<path class="st6" d="M140.87,68.54c-0.2,0.01-0.4,0.03-0.6,0.03c-3.29,0-6.58,0-9.86,0c-0.76,0-0.76,0-0.76,0.74
					c0,20.09,0,40.17,0.01,60.26c0,1.4-0.1,2.77-0.54,4.1c-1.54,4.7-4.7,7.8-9.52,8.9c-5.17,1.18-9.56-0.4-13.06-4.41
					c-0.06-0.07-0.1-0.15-0.14-0.23c1,0.4,2,0.8,3.06,1.01c3.37,0.67,6.55,0.15,9.47-1.65c3.38-2.08,5.37-5.13,6.07-9.02
					c0.13-0.74,0.15-1.49,0.15-2.24c0-20.12,0-40.25,0-60.37c0-0.94-0.13-0.82,0.8-0.82c4.64,0,9.28,0,13.92,0c0.11,0,0.22,0,0.33,0
					c0.48,0.01,0.48,0.01,0.48,0.49C140.67,66.4,140.66,67.48,140.87,68.54z"/>
				<path class="st6" d="M116.03,101.54c-2.83,0.09-5.61,0.54-8.3,1.44c-3.89,1.29-7.35,3.32-10.37,6.1
					c-3.96,3.65-6.66,8.07-8.14,13.24c-0.53,1.84-0.83,3.73-0.97,5.64c-0.08,1.15-0.11,2.3-0.04,3.44c0.17,3.19,0.83,6.27,2.04,9.23
					c1.35,3.31,3.25,6.27,5.72,8.86c0.05,0.05,0.08,0.12,0.12,0.18c-0.56-0.24-1.01-0.65-1.48-1.02c-4.6-3.65-7.85-8.25-9.63-13.86
					c-0.62-1.95-1.01-3.95-1.2-5.99c-0.14-1.48-0.15-2.96-0.06-4.43c0.22-3.4,1.03-6.66,2.43-9.77c1.47-3.25,3.47-6.13,6.01-8.62
					c2.96-2.9,6.39-5.07,10.3-6.48c2.45-0.88,4.97-1.42,7.57-1.61c1.88-0.14,3.75-0.1,5.63,0.13c0.25,0.03,0.4,0.08,0.4,0.38
					C116.04,99.46,116.04,100.5,116.03,101.54z"/>
				<path class="st5" d="M106.15,137.72c-1.14-0.52-2.13-1.26-3.03-2.12c-2.25-2.17-3.59-4.81-3.94-7.92
					c-0.73-6.52,3.38-12.14,9.09-13.88c2.44-0.74,4.88-0.77,7.33-0.11c0.14,0.04,0.27,0.1,0.42,0.06c0.08-0.2,0.04-0.4,0.04-0.6
					c0-3.65,0-7.3,0-10.95c0-0.2,0.02-0.4,0.03-0.6c1.41-0.1,2.81,0.03,4.21,0.19c0.22,0.02,0.28,0.13,0.27,0.32
					c0,0.11,0,0.22,0,0.33c0,4.84,0,9.68,0,14.51c0,0.18,0.05,0.36-0.07,0.56c-0.64-0.12-1.26-0.31-1.91-0.4
					c-3.74-0.52-7.11,0.35-10.07,2.68c-2.6,2.05-4.2,4.74-4.74,8c-0.57,3.46,0.15,6.67,2.14,9.58
					C106,137.47,106.08,137.59,106.15,137.72z"/>
				<path class="st5" d="M150.48,82.87c-1.41-0.83-2.64-1.88-3.77-3.05c-3.04-3.13-4.96-6.84-5.78-11.13c-0.01-0.04,0-0.07,0-0.11
					c1.31-0.07,2.63-0.01,3.94-0.03c0.23,0,0.34,0.09,0.31,0.32c-0.01,0.09,0,0.18,0,0.27c-0.07,3.68,1.02,7.04,2.82,10.2
					c0.64,1.13,1.41,2.17,2.24,3.17C150.33,82.62,150.46,82.71,150.48,82.87z"/>
				<path class="st6" d="M162.14,89.59c-3.74-0.8-7.03-2.49-9.89-5.03c-0.42-0.37-0.85-0.74-1.19-1.2c0.14-0.01,0.24,0.07,0.35,0.13
					c2.27,1.3,4.69,2.15,7.27,2.57c1,0.17,2.02,0.27,3.04,0.26c0.43,0,0.44,0.01,0.44,0.42C162.16,87.7,162.15,88.65,162.14,89.59z"
					/>
			</g>
		</g>
	</g>
</g>
</svg>
